ply
format ascii 1.0
comment VCGLIB generated
element vertex 386
property float x
property float y
property float z
property float nx
property float ny
property float nz
property uchar red
property uchar green
property uchar blue
property uchar alpha
element face 768
property list uchar int vertex_indices
end_header
0.5 0.5000001 -0.4999999 0.5773503 0.5773504 -0.5773501 97 138 70 255 
0.5 -0.4999999 -0.5000001 0.5773503 -0.5773501 -0.5773505 97 138 70 255 
-0.5 -0.4999999 -0.5000001 -0.5773503 -0.5773501 -0.5773505 97 138 70 255 
-0.5 0.5000001 -0.4999999 -0.5773503 0.5773504 -0.5773501 97 138 70 255 
-0.5 0.4999999 0.5000001 -0.5773503 0.5773501 0.5773505 97 138 70 255 
-0.5 -0.5000001 0.4999999 -0.5773503 -0.5773504 0.5773501 97 138 70 255 
0.5 -0.5000001 0.4999999 0.5773503 -0.5773504 0.5773501 97 138 70 255 
0.5 0.4999999 0.5000001 0.5773503 0.5773501 0.5773505 97 138 70 255 
0 7.450581e-08 -0.5 0 1.192093e-07 -1 78 110 56 255 
0 0.5000001 -0.4999999 0 0.7071071 -0.7071065 80 113 58 255 
0.5 7.450581e-08 -0.5 0.7071068 8.429371e-08 -0.7071068 97 138 70 255 
0 -7.450581e-08 0.5 0 -1.192093e-07 1 80 113 58 255 
0 0.4999999 0.5000001 0 0.7071065 0.7071071 97 138 70 255 
-0.5 -7.450581e-08 0.5 -0.7071068 -8.429372e-08 0.7071068 80 113 58 255 
0 0.5 7.450581e-08 0 1 1.192093e-07 78 110 56 255 
0.5 0.5 7.450581e-08 0.7071068 0.7071068 8.429372e-08 80 113 58 255 
-0.5 0 0 -1 0 0 80 113 58 255 
-0.5 -0.5 -7.450581e-08 -0.7071068 -0.7071068 -8.429371e-08 97 138 70 255 
0.5 0 0 1 0 0 78 110 56 255 
0.5 -0.5 -7.450581e-08 0.7071068 -0.7071068 -8.429372e-08 97 138 70 255 
0 -0.5 -7.450581e-08 0 -1 -1.192093e-07 80 113 58 255 
0 -0.4999999 -0.5000001 0 -0.7071065 -0.7071071 97 138 70 255 
-0.5 7.450581e-08 -0.5 -0.7071068 8.429372e-08 -0.7071068 97 138 70 255 
0 -0.5000001 0.4999999 0 -0.7071071 0.7071065 97 138 70 255 
0.5 -7.450581e-08 0.5 0.7071068 -8.429372e-08 0.7071068 97 138 70 255 
-0.5 0.5 7.450581e-08 -0.7071068 0.7071068 8.429371e-08 95 134 68 255 
0 0.2500001 -0.4999999 0 1.192093e-07 -1 80 113 58 255 
0.25 0.2500001 -0.4999999 0 1.192093e-07 -1 80 113 58 255 
0.25 7.450581e-08 -0.5 0 1.192093e-07 -1 78 110 56 255 
0 0.2499999 0.5 0 0 1 80 113 58 255 
-0.25 0.2499999 0.5 0 0 1 80 113 58 255 
-0.25 -7.450581e-08 0.5 0 -1.192093e-07 1 80 113 58 255 
0.25 0.5 7.450581e-08 0 1 1.192093e-07 80 113 58 255 
0.25 0.5 -0.2499999 0 1 0 80 113 58 255 
0 0.5 -0.2499999 0 1 0 80 113 58 255 
-0.5 -0.25 -3.72529e-08 -1 0 0 80 113 58 255 
-0.5 -0.25 0.25 -1 0 0 80 113 58 255 
-0.5 -3.72529e-08 0.25 -1 0 0 80 113 58 255 
0.5 -0.25 -3.72529e-08 1 0 0 78 110 56 255 
0.5 -0.25 -0.25 1 0 0 78 110 56 255 
0.5 3.72529e-08 -0.25 1 0 0 78 110 56 255 
-0.25 -0.5 -7.450581e-08 0 -1 -1.192093e-07 75 106 54 255 
-0.25 -0.4999999 -0.2500001 0 -1 -1.192093e-07 80 113 58 255 
0 -0.4999999 -0.2500001 0 -1 -1.192093e-07 80 113 58 255 
-0.25 -0.2499999 -0.5 0 0 -1 80 113 58 255 
-0.25 7.450581e-08 -0.5 0 1.192093e-07 -1 80 113 58 255 
0 -0.2499999 -0.5 0 0 -1 78 110 56 255 
0.25 -0.2500001 0.4999999 0 -1.192093e-07 1 80 113 58 255 
0.25 -7.450581e-08 0.5 0 -1.192093e-07 1 75 106 54 255 
0 -0.2500001 0.4999999 0 -1.192093e-07 1 80 113 58 255 
-0.25 0.4999999 0.2500001 0 1 1.192093e-07 21 29 15 255 
0 0.4999999 0.2500001 0 1 1.192093e-07 80 113 58 255 
-0.25 0.5 7.450581e-08 0 1 1.192093e-07 78 110 56 255 
-0.5 0.25 -0.25 -1 0 0 75 106 54 255 
-0.5 3.72529e-08 -0.25 -1 0 0 80 113 58 255 
-0.5 0.25 3.72529e-08 -1 0 0 97 138 70 255 
0.5 0.25 0.25 1 0 0 75 106 54 255 
0.5 -3.72529e-08 0.25 1 0 0 80 113 58 255 
0.5 0.25 3.72529e-08 1 0 0 80 113 58 255 
0.25 -0.5 0.2499999 0 -1 0 80 113 58 255 
0 -0.5 0.2499999 0 -1 0 75 106 54 255 
0.25 -0.5 -7.450581e-08 0 -1 -1.192093e-07 80 113 58 255 
0.25 -0.2499999 -0.5 0 0 -1 78 110 56 255 
0.5 -0.2499999 -0.5 0.7071068 0 -0.7071068 97 138 70 255 
-0.25 0.2500001 -0.4999999 0 1.192093e-07 -1 97 138 70 255 
-0.25 0.5000001 -0.4999999 0 0.7071071 -0.7071065 97 138 70 255 
0.25 0.5000001 -0.4999999 0 0.7071071 -0.7071065 97 138 70 255 
0.5 0.2500001 -0.4999999 0.7071068 8.42937e-08 -0.7071068 80 113 58 255 
-0.25 -0.2500001 0.4999999 0 -1.192093e-07 1 80 113 58 255 
-0.5 -0.2500001 0.4999999 -0.7071068 -8.42937e-08 0.7071068 97 138 70 255 
0.25 0.2499999 0.5 0 0 1 80 113 58 255 
0.25 0.4999999 0.5000001 0 0.7071065 0.7071071 97 138 70 255 
-0.25 0.4999999 0.5000001 0 0.7071065 0.7071071 97 138 70 255 
-0.5 0.2499999 0.5 -0.7071068 0 0.7071068 97 138 70 255 
-0.25 0.5 -0.2499999 0 1 0 80 113 58 255 
0.25 0.4999999 0.2500001 0 1 1.192093e-07 21 29 15 255 
0.5 0.4999999 0.2500001 0.7071068 0.7071068 8.42937e-08 75 106 54 255 
0.5 0.5 -0.2499999 0.7071068 0.7071068 0 97 138 70 255 
-0.5 0.25 0.25 -1 0 0 80 113 58 255 
-0.5 -0.25 -0.25 -1 0 0 80 113 58 255 
-0.5 -0.4999999 -0.2500001 -0.7071068 -0.7071068 -8.42937e-08 97 138 70 255 
-0.5 -0.5 0.2499999 -0.7071068 -0.7071068 0 80 113 58 255 
0.5 0.25 -0.25 1 0 0 80 113 58 255 
0.5 -0.25 0.25 1 0 0 75 106 54 255 
0.5 -0.5 0.2499999 0.7071068 -0.7071068 0 80 113 58 255 
0.5 -0.4999999 -0.2500001 0.7071068 -0.7071068 -8.42937e-08 97 138 70 255 
0.25 -0.4999999 -0.2500001 0 -1 -1.192093e-07 97 138 70 255 
0.25 -0.4999999 -0.5000001 0 -0.7071065 -0.7071071 80 113 58 255 
-0.25 -0.5 0.2499999 0 -1 0 78 110 56 255 
-0.25 -0.4999999 -0.5000001 0 -0.7071065 -0.7071071 97 138 70 255 
-0.5 -0.2499999 -0.5 -0.7071068 0 -0.7071068 97 138 70 255 
-0.5 0.2500001 -0.4999999 -0.7071068 8.42937e-08 -0.7071068 97 138 70 255 
-0.25 -0.5000001 0.4999999 0 -0.7071071 0.7071065 97 138 70 255 
0.25 -0.5000001 0.4999999 0 -0.7071071 0.7071065 80 113 58 255 
0.5 -0.2500001 0.4999999 0.7071068 -8.42937e-08 0.7071068 97 138 70 255 
0.5 0.2499999 0.5 0.7071068 0 0.7071068 80 113 58 255 
-0.5 0.5 -0.2499999 -0.7071068 0.7071068 0 97 138 70 255 
-0.5 0.4999999 0.2500001 -0.7071068 0.7071068 8.42937e-08 97 138 70 255 
0.125 0.2500001 -0.4999999 0 1.192093e-07 -1 80 113 58 255 
0.25 0.1250001 -0.5 0 2.384186e-07 -1 80 113 58 255 
0.125 0.1250001 -0.5 0 2.384186e-07 -1 80 113 58 255 
-0.125 0.2499999 0.5 0 0 1 80 113 58 255 
-0.25 0.1249999 0.5 0 0 1 80 113 58 255 
-0.125 0.1249999 0.5 0 0 1 78 110 56 255 
0.25 0.5 -0.1249999 0 1 0 80 113 58 255 
0.125 0.5 -0.2499999 0 1 0 80 113 58 255 
0.125 0.5 -0.1249999 0 1 0 80 113 58 255 
-0.5 -0.25 0.125 -1 0 0 75 106 54 255 
-0.5 -0.125 0.25 -1 0 0 80 113 58 255 
-0.5 -0.125 0.125 -1 0 0 78 110 56 255 
0.5 -0.25 -0.125 1 0 0 75 106 54 255 
0.5 -0.125 -0.25 1 0 0 75 106 54 255 
0.5 -0.125 -0.125 1 0 0 80 113 58 255 
-0.25 -0.5 -0.1250001 0 -1 -2.384186e-07 78 110 56 255 
-0.125 -0.4999999 -0.2500001 0 -1 -1.192093e-07 80 113 58 255 
-0.125 -0.5 -0.1250001 0 -1 -2.384186e-07 75 106 54 255 
-0.25 -0.1249999 -0.5 0 0 -1 80 113 58 255 
-0.125 -0.1249999 -0.5 0 0 -1 80 113 58 255 
-0.125 -0.2499999 -0.5 0 0 -1 80 113 58 255 
0.25 -0.1250001 0.5 0 -2.384186e-07 1 78 110 56 255 
0.125 -0.1250001 0.5 0 -2.384186e-07 1 75 106 54 255 
0.125 -0.2500001 0.4999999 0 -1.192093e-07 1 80 113 58 255 
-0.125 0.4999999 0.2500001 0 1 1.192093e-07 80 113 58 255 
-0.125 0.5 0.1250001 0 1 2.384186e-07 78 110 56 255 
-0.25 0.5 0.1250001 0 1 2.384186e-07 10 10 10 255 
-0.5 0.125 -0.25 -1 0 0 80 113 58 255 
-0.5 0.125 -0.125 -1 0 0 80 113 58 255 
-0.5 0.25 -0.125 -1 0 0 80 113 58 255 
0.5 0.125 0.25 1 0 0 80 113 58 255 
0.5 0.125 0.125 1 0 0 80 113 58 255 
0.5 0.25 0.125 1 0 0 78 110 56 255 
0.125 -0.5 0.2499999 0 -1 0 78 110 56 255 
0.125 -0.5 0.1249999 0 -1 0 75 106 54 255 
0.25 -0.5 0.1249999 0 -1 0 80 113 58 255 
0.25 -0.1249999 -0.5 0 0 -1 75 106 54 255 
0.375 -0.1249999 -0.5 0 0 -1 80 113 58 255 
0.375 -0.2499999 -0.5 0 0 -1 80 113 58 255 
-0.25 0.3750001 -0.4999999 0 1.192093e-07 -1 97 138 70 255 
-0.125 0.3750001 -0.4999999 0 1.192093e-07 -1 80 113 58 255 
-0.125 0.2500001 -0.4999999 0 1.192093e-07 -1 80 113 58 255 
0.25 0.3750001 -0.4999999 0 1.192093e-07 -1 80 113 58 255 
0.375 0.3750001 -0.4999999 0 1.192093e-07 -1 80 113 58 255 
0.375 0.2500001 -0.4999999 0 1.192093e-07 -1 80 113 58 255 
-0.25 -0.1250001 0.5 0 -2.384186e-07 1 80 113 58 255 
-0.375 -0.1250001 0.5 0 -2.384186e-07 1 80 113 58 255 
-0.375 -0.2500001 0.4999999 0 -1.192093e-07 1 97 138 70 255 
0.25 0.3749999 0.5 0 -2.384186e-07 1 80 113 58 255 
0.125 0.3749999 0.5 0 -2.384186e-07 1 80 113 58 255 
0.125 0.2499999 0.5 0 0 1 80 113 58 255 
-0.25 0.3749999 0.5 0 -2.384186e-07 1 80 113 58 255 
-0.375 0.3749999 0.5 0 -2.384186e-07 1 97 138 70 255 
-0.375 0.2499999 0.5 0 0 1 80 113 58 255 
-0.125 0.5 -0.2499999 0 1 0 80 113 58 255 
-0.125 0.5 -0.3749999 0 1 2.384186e-07 80 113 58 255 
-0.25 0.5 -0.3749999 0 1 2.384186e-07 80 113 58 255 
0.375 0.4999999 0.2500001 0 1 1.192093e-07 21 29 15 255 
0.375 0.5 0.1250001 0 1 2.384186e-07 21 29 15 255 
0.25 0.5 0.1250001 0 1 2.384186e-07 10 10 10 255 
0.375 0.5 -0.2499999 0 1 0 80 113 58 255 
0.375 0.5 -0.3749999 0 1 2.384186e-07 80 113 58 255 
0.25 0.5 -0.3749999 0 1 2.384186e-07 80 113 58 255 
-0.5 0.125 0.25 -1 0 0 80 113 58 255 
-0.5 0.1249999 0.375 -1 0 0 80 113 58 255 
-0.5 0.2499999 0.375 -1 0 0 80 113 58 255 
-0.5 -0.3749999 -0.2500001 -1 0 0 80 113 58 255 
-0.5 -0.375 -0.125 -1 0 0 78 110 56 255 
-0.5 -0.25 -0.125 -1 0 0 75 106 54 255 
-0.5 -0.375 0.2499999 -1 0 0 97 138 70 255 
-0.5 -0.375 0.3749999 -1 0 0 97 138 70 255 
-0.5 -0.2500001 0.3749999 -1 0 0 80 113 58 255 
0.5 0.125 -0.25 1 0 0 80 113 58 255 
0.5 0.125 -0.375 1 0 0 80 113 58 255 
0.5 0.2500001 -0.3749999 1 0 0 80 113 58 255 
0.5 -0.375 0.2499999 1 0 0 75 106 54 255 
0.5 -0.375 0.1249999 1 0 0 80 113 58 255 
0.5 -0.25 0.125 1 0 0 80 113 58 255 
0.5 -0.3749999 -0.2500001 1 0 0 78 110 56 255 
0.5 -0.3749999 -0.375 1 0 0 97 138 70 255 
0.5 -0.2499999 -0.375 1 0 0 97 138 70 255 
0.125 -0.4999999 -0.2500001 0 -1 -1.192093e-07 97 138 70 255 
0.125 -0.4999999 -0.3750001 0 -1 -1.192093e-07 97 138 70 255 
0.25 -0.4999999 -0.3750001 0 -1 -1.192093e-07 80 113 58 255 
-0.375 -0.5 0.2499999 0 -1 0 78 110 56 255 
-0.375 -0.5 0.1249999 0 -1 0 75 106 54 255 
-0.25 -0.5 0.1249999 0 -1 0 75 106 54 255 
-0.375 -0.4999999 -0.2500001 0 -1 -1.192093e-07 80 113 58 255 
-0.375 -0.4999999 -0.3750001 0 -1 -1.192093e-07 97 138 70 255 
-0.25 -0.4999999 -0.3750001 0 -1 -1.192093e-07 97 138 70 255 
0.125 -0.3749999 -0.5 0 2.384186e-07 -1 80 113 58 255 
0.125 -0.2499999 -0.5 0 0 -1 75 106 54 255 
0.25 -0.3749999 -0.5 0 2.384186e-07 -1 80 113 58 255 
-0.375 -0.3749999 -0.5 0 2.384186e-07 -1 97 138 70 255 
-0.375 -0.2499999 -0.5 0 0 -1 97 138 70 255 
-0.25 -0.3749999 -0.5 0 2.384186e-07 -1 80 113 58 255 
-0.375 0.1250001 -0.5 0 2.384186e-07 -1 97 138 70 255 
-0.375 0.2500001 -0.4999999 0 1.192093e-07 -1 97 138 70 255 
-0.25 0.1250001 -0.5 0 2.384186e-07 -1 80 113 58 255 
-0.125 -0.3750001 0.4999999 0 -1.192093e-07 1 97 138 70 255 
-0.125 -0.2500001 0.4999999 0 -1.192093e-07 1 80 113 58 255 
-0.25 -0.3750001 0.4999999 0 -1.192093e-07 1 97 138 70 255 
0.375 -0.3750001 0.4999999 0 -1.192093e-07 1 97 138 70 255 
0.375 -0.2500001 0.4999999 0 -1.192093e-07 1 80 113 58 255 
0.25 -0.3750001 0.4999999 0 -1.192093e-07 1 97 138 70 255 
0.375 0.1249999 0.5 0 0 1 80 113 58 255 
0.375 0.2499999 0.5 0 0 1 80 113 58 255 
0.25 0.1249999 0.5 0 0 1 78 110 56 255 
-0.375 0.5 -0.1249999 0 1 0 80 113 58 255 
-0.25 0.5 -0.1249999 0 1 0 80 113 58 255 
-0.375 0.5 -0.2499999 0 1 0 80 113 58 255 
-0.375 0.4999999 0.3750001 0 1 1.192093e-07 80 113 58 255 
-0.25 0.4999999 0.3750001 0 1 1.192093e-07 80 113 58 255 
-0.375 0.4999999 0.2500001 0 1 1.192093e-07 21 29 15 255 
0.125 0.4999999 0.3750001 0 1 1.192093e-07 80 113 58 255 
0.25 0.4999999 0.3750001 0 1 1.192093e-07 80 113 58 255 
0.125 0.4999999 0.2500001 0 1 1.192093e-07 21 29 15 255 
-0.5 0.375 0.125 -1 0 0 80 113 58 255 
-0.5 0.25 0.125 -1 0 0 97 138 70 255 
-0.5 0.3749999 0.2500001 -1 0 0 80 113 58 255 
-0.5 0.375 -0.3749999 -1 0 0 97 138 70 255 
-0.5 0.2500001 -0.3749999 -1 0 0 97 138 70 255 
-0.5 0.375 -0.2499999 -1 0 0 97 138 70 255 
-0.5 -0.1249999 -0.375 -1 0 0 80 113 58 255 
-0.5 -0.2499999 -0.375 -1 0 0 80 113 58 255 
-0.5 -0.125 -0.25 -1 0 0 80 113 58 255 
0.5 0.375 -0.1249999 1 0 0 80 113 58 255 
0.5 0.25 -0.125 1 0 0 80 113 58 255 
0.5 0.375 -0.2499999 1 0 0 75 106 54 255 
0.5 0.3749999 0.375 1 0 0 75 106 54 255 
0.5 0.2499999 0.375 1 0 0 78 110 56 255 
0.5 0.3749999 0.2500001 1 0 0 80 113 58 255 
0.5 -0.125 0.375 1 0 0 80 113 58 255 
0.5 -0.2500001 0.3749999 1 0 0 80 113 58 255 
0.5 -0.125 0.25 1 0 0 80 113 58 255 
0.375 -0.5 -0.1250001 0 -1 -2.384186e-07 80 113 58 255 
0.25 -0.5 -0.1250001 0 -1 -2.384186e-07 80 113 58 255 
0.375 -0.4999999 -0.2500001 0 -1 -1.192093e-07 80 113 58 255 
0.375 -0.5 0.3749999 0 -1 -2.384186e-07 75 106 54 255 
0.25 -0.5 0.3749999 0 -1 -2.384186e-07 80 113 58 255 
0.375 -0.5 0.2499999 0 -1 0 80 113 58 255 
-0.125 -0.5 0.3749999 0 -1 -2.384186e-07 80 113 58 255 
-0.25 -0.5 0.3749999 0 -1 -2.384186e-07 97 138 70 255 
-0.125 -0.5 0.2499999 0 -1 0 75 106 54 255 
0 0.1250001 -0.5 0 2.384186e-07 -1 80 113 58 255 
0.125 7.450581e-08 -0.5 0 1.192093e-07 -1 75 106 54 255 
0 0.3750001 -0.4999999 0 1.192093e-07 -1 80 113 58 255 
0.125 0.3750001 -0.4999999 0 1.192093e-07 -1 80 113 58 255 
0.375 0.1250001 -0.5 0 2.384186e-07 -1 80 113 58 255 
0.375 7.450581e-08 -0.5 0 1.192093e-07 -1 80 113 58 255 
0 0.1249999 0.5 0 0 1 75 106 54 255 
-0.125 -7.450581e-08 0.5 0 -1.192093e-07 1 75 106 54 255 
0 0.3749999 0.5 0 -2.384186e-07 1 80 113 58 255 
-0.125 0.3749999 0.5 0 -2.384186e-07 1 80 113 58 255 
-0.375 0.1249999 0.5 0 0 1 80 113 58 255 
-0.375 -7.450581e-08 0.5 0 -1.192093e-07 1 80 113 58 255 
0.125 0.5 7.450581e-08 0 1 1.192093e-07 80 113 58 255 
0 0.5 -0.1249999 0 1 0 80 113 58 255 
0.375 0.5 7.450581e-08 0 1 1.192093e-07 80 113 58 255 
0.375 0.5 -0.1249999 0 1 0 80 113 58 255 
0.125 0.5 -0.3749999 0 1 2.384186e-07 80 113 58 255 
0 0.5 -0.3749999 0 1 2.384186e-07 80 113 58 255 
-0.5 -0.125 -1.862645e-08 -1 0 0 75 106 54 255 
-0.5 -1.862645e-08 0.125 -1 0 0 80 113 58 255 
-0.5 -0.375 -5.587935e-08 -1 0 0 75 106 54 255 
-0.5 -0.375 0.1249999 -1 0 0 78 110 56 255 
-0.5 -0.1250001 0.375 -1 0 0 80 113 58 255 
-0.5 -5.587935e-08 0.375 -1 0 0 80 113 58 255 
0.5 -0.125 -1.862645e-08 1 0 0 75 106 54 255 
0.5 1.862645e-08 -0.125 1 0 0 75 106 54 255 
0.5 -0.375 -5.587935e-08 1 0 0 78 110 56 255 
0.5 -0.375 -0.1250001 1 0 0 75 106 54 255 
0.5 -0.1249999 -0.375 1 0 0 80 113 58 255 
0.5 5.587935e-08 -0.375 1 0 0 97 138 70 255 
-0.125 -0.5 -7.450581e-08 0 -1 -1.192093e-07 80 113 58 255 
0 -0.5 -0.1250001 0 -1 -2.384186e-07 75 106 54 255 
-0.375 -0.5 -7.450581e-08 0 -1 -1.192093e-07 75 106 54 255 
-0.375 -0.5 -0.1250001 0 -1 -2.384186e-07 78 110 56 255 
-0.125 -0.4999999 -0.3750001 0 -1 -1.192093e-07 97 138 70 255 
0 -0.4999999 -0.3750001 0 -1 -1.192093e-07 97 138 70 255 
-0.125 -0.3749999 -0.5 0 2.384186e-07 -1 80 113 58 255 
0 -0.3749999 -0.5 0 2.384186e-07 -1 80 113 58 255 
-0.375 -0.1249999 -0.5 0 0 -1 97 138 70 255 
-0.375 7.450581e-08 -0.5 0 1.192093e-07 -1 80 113 58 255 
-0.125 7.450581e-08 -0.5 0 1.192093e-07 -1 80 113 58 255 
0 -0.1249999 -0.5 0 0 -1 75 106 54 255 
0.125 -0.3750001 0.4999999 0 -1.192093e-07 1 80 113 58 255 
0 -0.3750001 0.4999999 0 -1.192093e-07 1 80 113 58 255 
0.375 -0.1250001 0.5 0 -2.384186e-07 1 80 113 58 255 
0.375 -7.450581e-08 0.5 0 -1.192093e-07 1 80 113 58 255 
0.125 -7.450581e-08 0.5 0 -1.192093e-07 1 80 113 58 255 
0 -0.1250001 0.5 0 -2.384186e-07 1 75 106 54 255 
-0.375 0.5 0.1250001 0 1 2.384186e-07 21 29 15 255 
-0.375 0.5 7.450581e-08 0 1 1.192093e-07 80 113 58 255 
-0.125 0.4999999 0.3750001 0 1 1.192093e-07 80 113 58 255 
0 0.4999999 0.3750001 0 1 1.192093e-07 80 113 58 255 
0 0.5 0.1250001 0 1 2.384186e-07 80 113 58 255 
-0.125 0.5 7.450581e-08 0 1 1.192093e-07 80 113 58 255 
-0.5 0.375 -0.1249999 -1 0 0 97 138 70 255 
-0.5 0.375 5.587935e-08 -1 0 0 97 138 70 255 
-0.5 0.1250001 -0.375 -1 0 0 80 113 58 255 
-0.5 5.587935e-08 -0.375 -1 0 0 80 113 58 255 
-0.5 1.862645e-08 -0.125 -1 0 0 80 113 58 255 
-0.5 0.125 1.862645e-08 -1 0 0 80 113 58 255 
0.5 0.375 0.1250001 1 0 0 75 106 54 255 
0.5 0.375 5.587935e-08 1 0 0 80 113 58 255 
0.5 0.1249999 0.375 1 0 0 80 113 58 255 
0.5 -5.587935e-08 0.375 1 0 0 80 113 58 255 
0.5 -1.862645e-08 0.125 1 0 0 80 113 58 255 
0.5 0.125 1.862645e-08 1 0 0 80 113 58 255 
0.375 -0.5 0.1249999 0 -1 0 80 113 58 255 
0.375 -0.5 -7.450581e-08 0 -1 -1.192093e-07 75 106 54 255 
0.125 -0.5 0.3749999 0 -1 -2.384186e-07 80 113 58 255 
0 -0.5 0.3749999 0 -1 -2.384186e-07 80 113 58 255 
0 -0.5 0.1249999 0 -1 0 80 113 58 255 
0.125 -0.5 -7.450581e-08 0 -1 -1.192093e-07 75 106 54 255 
0.375 -0.3749999 -0.5 0 2.384186e-07 -1 80 113 58 255 
0.5 -0.3749999 -0.5 0.7071068 1.685874e-07 -0.7071067 80 113 58 255 
0.125 -0.1249999 -0.5 0 0 -1 80 113 58 255 
0.5 -0.1249999 -0.5 0.7071068 0 -0.7071068 97 138 70 255 
-0.125 0.1250001 -0.5 0 2.384186e-07 -1 80 113 58 255 
-0.375 0.3750001 -0.4999999 0 1.192093e-07 -1 97 138 70 255 
-0.375 0.5000001 -0.4999999 0 0.7071071 -0.7071065 97 138 70 255 
-0.125 0.5000001 -0.4999999 0 0.7071071 -0.7071065 97 138 70 255 
0.5 0.1250001 -0.5 0.7071068 1.685874e-07 -0.7071068 97 138 70 255 
0.125 0.5000001 -0.4999999 0 0.7071071 -0.7071065 97 138 70 255 
0.375 0.5000001 -0.4999999 0 0.7071071 -0.7071065 97 138 70 255 
0.5 0.3750001 -0.4999999 0.7071068 8.42937e-08 -0.7071068 97 138 70 255 
-0.375 -0.3750001 0.4999999 0 -1.192093e-07 1 97 138 70 255 
-0.5 -0.3750001 0.4999999 -0.7071068 -8.42937e-08 0.7071068 97 138 70 255 
-0.125 -0.1250001 0.5 0 -2.384186e-07 1 78 110 56 255 
-0.5 -0.1250001 0.5 -0.7071068 -1.685874e-07 0.7071068 97 138 70 255 
0.125 0.1249999 0.5 0 0 1 75 106 54 255 
0.375 0.3749999 0.5 0 -2.384186e-07 1 80 113 58 255 
0.375 0.4999999 0.5000001 0 0.7071065 0.7071071 97 138 70 255 
0.125 0.4999999 0.5000001 0 0.7071065 0.7071071 97 138 70 255 
-0.5 0.1249999 0.5 -0.7071068 0 0.7071068 97 138 70 255 
-0.125 0.4999999 0.5000001 0 0.7071065 0.7071071 97 138 70 255 
-0.375 0.4999999 0.5000001 0 0.7071065 0.7071071 97 138 70 255 
-0.5 0.3749999 0.5 -0.7071068 -1.685874e-07 0.7071067 97 138 70 255 
-0.375 0.5 -0.3749999 0 1 2.384186e-07 80 113 58 255 
-0.125 0.5 -0.1249999 0 1 0 10 10 10 255 
0.125 0.5 0.1250001 0 1 2.384186e-07 10 10 10 255 
0.375 0.4999999 0.3750001 0 1 1.192093e-07 80 113 58 255 
0.5 0.4999999 0.3750001 0.7071068 0.7071068 8.42937e-08 95 134 68 255 
0.5 0.5 0.1250001 0.7071068 0.7071068 1.685874e-07 97 138 70 255 
0.5 0.5 -0.1249999 0.7071068 0.7071068 0 97 138 70 255 
0.5 0.5 -0.3749999 0.7071068 0.7071067 1.685874e-07 97 138 70 255 
-0.5 0.3749999 0.3750001 -1 0 0 80 113 58 255 
-0.5 0.125 0.125 -1 0 0 80 113 58 255 
-0.5 -0.125 -0.125 -1 0 0 78 110 56 255 
-0.5 -0.3749999 -0.3750001 -1 0 0 97 138 70 255 
-0.5 -0.4999999 -0.3750001 -0.7071068 -0.7071068 -8.42937e-08 97 138 70 255 
-0.5 -0.5 -0.1250001 -0.7071068 -0.7071068 -1.685874e-07 97 138 70 255 
-0.5 -0.5 0.1249999 -0.7071068 -0.7071068 0 97 138 70 255 
-0.5 -0.5 0.3749999 -0.7071068 -0.7071067 -1.685874e-07 97 138 70 255 
0.5 0.3750001 -0.3749999 1 0 0 97 138 70 255 
0.5 0.125 -0.125 1 0 0 80 113 58 255 
0.5 -0.125 0.125 1 0 0 80 113 58 255 
0.5 -0.3750001 0.3749999 1 0 0 80 113 58 255 
0.5 -0.5 0.3749999 0.7071068 -0.7071067 -1.685874e-07 97 138 70 255 
0.5 -0.5 0.1249999 0.7071068 -0.7071068 0 97 138 70 255 
0.5 -0.5 -0.1250001 0.7071068 -0.7071068 -1.685874e-07 97 138 70 255 
0.5 -0.4999999 -0.3750001 0.7071068 -0.7071068 -8.42937e-08 97 138 70 255 
0.375 -0.4999999 -0.3750001 0 -1 -1.192093e-07 97 138 70 255 
0.375 -0.4999999 -0.5000001 0 -0.7071065 -0.7071071 80 113 58 255 
0.125 -0.5 -0.1250001 0 -1 -2.384186e-07 78 110 56 255 
0.125 -0.4999999 -0.5000001 0 -0.7071065 -0.7071071 97 138 70 255 
-0.125 -0.5 0.1249999 0 -1 0 80 113 58 255 
-0.375 -0.5 0.3749999 0 -1 -2.384186e-07 97 138 70 255 
-0.125 -0.4999999 -0.5000001 0 -0.7071065 -0.7071071 80 113 58 255 
-0.375 -0.4999999 -0.5000001 0 -0.7071065 -0.7071071 97 138 70 255 
-0.5 -0.3749999 -0.5 -0.7071068 1.685874e-07 -0.7071067 97 138 70 255 
-0.5 -0.1249999 -0.5 -0.7071068 0 -0.7071068 97 138 70 255 
-0.5 0.1250001 -0.5 -0.7071068 1.685874e-07 -0.7071068 97 138 70 255 
-0.5 0.3750001 -0.4999999 -0.7071068 8.42937e-08 -0.7071068 97 138 70 255 
-0.375 -0.5000001 0.4999999 0 -0.7071071 0.7071065 97 138 70 255 
-0.125 -0.5000001 0.4999999 0 -0.7071071 0.7071065 97 138 70 255 
0.125 -0.5000001 0.4999999 0 -0.7071071 0.7071065 97 138 70 255 
0.375 -0.5000001 0.4999999 0 -0.7071071 0.7071065 97 138 70 255 
0.5 -0.3750001 0.4999999 0.7071068 -8.42937e-08 0.7071068 97 138 70 255 
0.5 -0.1250001 0.5 0.7071068 -1.685874e-07 0.7071068 80 113 58 255 
0.5 0.1249999 0.5 0.7071068 0 0.7071068 97 138 70 255 
0.5 0.3749999 0.5 0.7071068 -1.685874e-07 0.7071067 97 138 70 255 
-0.5 0.5 -0.3749999 -0.7071068 0.7071067 1.685874e-07 97 138 70 255 
-0.5 0.5 -0.1249999 -0.7071068 0.7071068 0 80 113 58 255 
-0.5 0.5 0.1250001 -0.7071068 0.7071068 1.685874e-07 97 138 70 255 
-0.5 0.4999999 0.3750001 -0.7071068 0.7071068 8.42937e-08 97 138 70 255 
3 98 99 100 
3 101 102 103 
3 104 105 106 
3 107 108 109 
3 110 111 112 
3 113 114 115 
3 116 117 118 
3 119 120 121 
3 122 123 124 
3 125 126 127 
3 128 129 130 
3 131 132 133 
3 134 135 136 
3 137 138 139 
3 140 141 142 
3 143 144 145 
3 146 147 148 
3 149 150 151 
3 152 153 154 
3 155 156 157 
3 158 159 160 
3 161 162 163 
3 164 165 166 
3 167 168 169 
3 170 171 172 
3 173 174 175 
3 176 177 178 
3 179 180 181 
3 182 183 184 
3 185 186 187 
3 188 189 190 
3 191 192 193 
3 194 195 196 
3 197 198 199 
3 200 201 202 
3 203 204 205 
3 206 207 208 
3 209 210 211 
3 212 213 214 
3 215 216 217 
3 218 219 220 
3 221 222 223 
3 224 225 226 
3 227 228 229 
3 230 231 232 
3 233 234 235 
3 236 237 238 
3 239 240 241 
3 242 100 243 
3 244 245 98 
3 99 246 247 
3 248 103 249 
3 250 251 101 
3 102 252 253 
3 254 106 255 
3 256 257 104 
3 105 258 259 
3 260 109 261 
3 262 263 107 
3 108 264 265 
3 266 112 267 
3 268 269 110 
3 111 270 271 
3 272 115 273 
3 274 275 113 
3 114 276 277 
3 278 118 279 
3 280 281 116 
3 117 282 283 
3 284 121 285 
3 286 287 119 
3 120 288 289 
3 290 124 291 
3 292 293 122 
3 123 294 295 
3 296 127 297 
3 298 299 125 
3 126 300 301 
3 302 130 303 
3 304 305 128 
3 129 306 307 
3 308 133 309 
3 310 311 131 
3 132 312 313 
3 314 136 315 
3 316 243 134 
3 135 247 317 
3 318 139 242 
3 319 320 137 
3 138 321 244 
3 246 142 322 
3 245 323 140 
3 141 324 325 
3 326 145 327 
3 328 249 143 
3 144 253 329 
3 330 148 248 
3 331 332 146 
3 147 333 250 
3 252 151 334 
3 251 335 149 
3 150 336 337 
3 338 154 320 
3 339 255 152 
3 153 259 321 
3 340 157 254 
3 341 342 155 
3 156 343 256 
3 258 160 323 
3 257 344 158 
3 159 345 324 
3 346 163 337 
3 347 261 161 
3 162 265 334 
3 348 166 260 
3 349 350 164 
3 165 351 262 
3 264 169 329 
3 263 352 167 
3 168 353 327 
3 354 172 325 
3 355 267 170 
3 171 271 322 
3 356 175 266 
3 357 358 173 
3 174 359 268 
3 270 178 317 
3 269 360 176 
3 177 361 315 
3 362 181 363 
3 364 273 179 
3 180 277 365 
3 366 184 272 
3 367 353 182 
3 183 352 274 
3 276 187 368 
3 275 351 185 
3 186 350 369 
3 363 190 314 
3 365 279 188 
3 189 283 316 
3 368 193 278 
3 369 370 191 
3 192 371 280 
3 282 196 318 
3 281 372 194 
3 195 373 319 
3 374 199 326 
3 375 285 197 
3 198 289 328 
3 376 202 284 
3 377 378 200 
3 201 379 286 
3 288 205 330 
3 287 380 203 
3 204 381 331 
3 382 208 338 
3 383 291 206 
3 207 295 339 
3 384 211 290 
3 385 336 209 
3 210 335 292 
3 294 214 340 
3 293 333 212 
3 213 332 341 
3 385 217 346 
3 384 297 215 
3 216 301 347 
3 383 220 296 
3 382 373 218 
3 219 372 298 
3 300 223 348 
3 299 371 221 
3 222 370 349 
3 345 226 354 
3 344 303 224 
3 225 307 355 
3 343 229 302 
3 342 381 227 
3 228 380 304 
3 306 232 356 
3 305 379 230 
3 231 378 357 
3 361 235 362 
3 360 309 233 
3 234 313 364 
3 359 238 308 
3 358 377 236 
3 237 376 310 
3 312 241 366 
3 311 375 239 
3 240 374 367 
3 26 98 100 
3 98 27 99 
3 100 99 28 
3 29 101 103 
3 101 30 102 
3 103 102 31 
3 32 104 106 
3 104 33 105 
3 106 105 34 
3 35 107 109 
3 107 36 108 
3 109 108 37 
3 38 110 112 
3 110 39 111 
3 112 111 40 
3 41 113 115 
3 113 42 114 
3 115 114 43 
3 44 116 118 
3 116 45 117 
3 118 117 46 
3 47 119 121 
3 119 48 120 
3 121 120 49 
3 50 122 124 
3 122 51 123 
3 124 123 52 
3 53 125 127 
3 125 54 126 
3 127 126 55 
3 56 128 130 
3 128 57 129 
3 130 129 58 
3 59 131 133 
3 131 60 132 
3 133 132 61 
3 62 134 136 
3 134 28 135 
3 136 135 63 
3 64 137 139 
3 137 65 138 
3 139 138 26 
3 27 140 142 
3 140 66 141 
3 142 141 67 
3 68 143 145 
3 143 31 144 
3 145 144 69 
3 70 146 148 
3 146 71 147 
3 148 147 29 
3 30 149 151 
3 149 72 150 
3 151 150 73 
3 74 152 154 
3 152 34 153 
3 154 153 65 
3 75 155 157 
3 155 76 156 
3 157 156 32 
3 33 158 160 
3 158 77 159 
3 160 159 66 
3 78 161 163 
3 161 37 162 
3 163 162 73 
3 79 164 166 
3 164 80 165 
3 166 165 35 
3 36 167 169 
3 167 81 168 
3 169 168 69 
3 82 170 172 
3 170 40 171 
3 172 171 67 
3 83 173 175 
3 173 84 174 
3 175 174 38 
3 39 176 178 
3 176 85 177 
3 178 177 63 
3 86 179 181 
3 179 43 180 
3 181 180 87 
3 88 182 184 
3 182 81 183 
3 184 183 41 
3 42 185 187 
3 185 80 186 
3 187 186 89 
3 87 188 190 
3 188 46 189 
3 190 189 62 
3 89 191 193 
3 191 90 192 
3 193 192 44 
3 45 194 196 
3 194 91 195 
3 196 195 64 
3 92 197 199 
3 197 49 198 
3 199 198 68 
3 93 200 202 
3 200 94 201 
3 202 201 47 
3 48 203 205 
3 203 95 204 
3 205 204 70 
3 96 206 208 
3 206 52 207 
3 208 207 74 
3 97 209 211 
3 209 72 210 
3 211 210 50 
3 51 212 214 
3 212 71 213 
3 214 213 75 
3 97 215 217 
3 215 55 216 
3 217 216 78 
3 96 218 220 
3 218 91 219 
3 220 219 53 
3 54 221 223 
3 221 90 222 
3 223 222 79 
3 77 224 226 
3 224 58 225 
3 226 225 82 
3 76 227 229 
3 227 95 228 
3 229 228 56 
3 57 230 232 
3 230 94 231 
3 232 231 83 
3 85 233 235 
3 233 61 234 
3 235 234 86 
3 84 236 238 
3 236 93 237 
3 238 237 59 
3 60 239 241 
3 239 92 240 
3 241 240 88 
3 8 242 243 
3 242 26 100 
3 243 100 28 
3 26 244 98 
3 244 9 245 
3 98 245 27 
3 28 99 247 
3 99 27 246 
3 247 246 10 
3 11 248 249 
3 248 29 103 
3 249 103 31 
3 29 250 101 
3 250 12 251 
3 101 251 30 
3 31 102 253 
3 102 30 252 
3 253 252 13 
3 14 254 255 
3 254 32 106 
3 255 106 34 
3 32 256 104 
3 256 15 257 
3 104 257 33 
3 34 105 259 
3 105 33 258 
3 259 258 9 
3 16 260 261 
3 260 35 109 
3 261 109 37 
3 35 262 107 
3 262 17 263 
3 107 263 36 
3 37 108 265 
3 108 36 264 
3 265 264 13 
3 18 266 267 
3 266 38 112 
3 267 112 40 
3 38 268 110 
3 268 19 269 
3 110 269 39 
3 40 111 271 
3 111 39 270 
3 271 270 10 
3 20 272 273 
3 272 41 115 
3 273 115 43 
3 41 274 113 
3 274 17 275 
3 113 275 42 
3 43 114 277 
3 114 42 276 
3 277 276 21 
3 21 278 279 
3 278 44 118 
3 279 118 46 
3 44 280 116 
3 280 22 281 
3 116 281 45 
3 46 117 283 
3 117 45 282 
3 283 282 8 
3 23 284 285 
3 284 47 121 
3 285 121 49 
3 47 286 119 
3 286 24 287 
3 119 287 48 
3 49 120 289 
3 120 48 288 
3 289 288 11 
3 25 290 291 
3 290 50 124 
3 291 124 52 
3 50 292 122 
3 292 12 293 
3 122 293 51 
3 52 123 295 
3 123 51 294 
3 295 294 14 
3 25 296 297 
3 296 53 127 
3 297 127 55 
3 53 298 125 
3 298 22 299 
3 125 299 54 
3 55 126 301 
3 126 54 300 
3 301 300 16 
3 15 302 303 
3 302 56 130 
3 303 130 58 
3 56 304 128 
3 304 24 305 
3 128 305 57 
3 58 129 307 
3 129 57 306 
3 307 306 18 
3 19 308 309 
3 308 59 133 
3 309 133 61 
3 59 310 131 
3 310 23 311 
3 131 311 60 
3 61 132 313 
3 132 60 312 
3 313 312 20 
3 1 314 315 
3 314 62 136 
3 315 136 63 
3 62 316 134 
3 316 8 243 
3 134 243 28 
3 63 135 317 
3 135 28 247 
3 317 247 10 
3 8 318 242 
3 318 64 139 
3 242 139 26 
3 64 319 137 
3 319 3 320 
3 137 320 65 
3 26 138 244 
3 138 65 321 
3 244 321 9 
3 10 246 322 
3 246 27 142 
3 322 142 67 
3 27 245 140 
3 245 9 323 
3 140 323 66 
3 67 141 325 
3 141 66 324 
3 325 324 0 
3 5 326 327 
3 326 68 145 
3 327 145 69 
3 68 328 143 
3 328 11 249 
3 143 249 31 
3 69 144 329 
3 144 31 253 
3 329 253 13 
3 11 330 248 
3 330 70 148 
3 248 148 29 
3 70 331 146 
3 331 7 332 
3 146 332 71 
3 29 147 250 
3 147 71 333 
3 250 333 12 
3 13 252 334 
3 252 30 151 
3 334 151 73 
3 30 251 149 
3 251 12 335 
3 149 335 72 
3 73 150 337 
3 150 72 336 
3 337 336 4 
3 3 338 320 
3 338 74 154 
3 320 154 65 
3 74 339 152 
3 339 14 255 
3 152 255 34 
3 65 153 321 
3 153 34 259 
3 321 259 9 
3 14 340 254 
3 340 75 157 
3 254 157 32 
3 75 341 155 
3 341 7 342 
3 155 342 76 
3 32 156 256 
3 156 76 343 
3 256 343 15 
3 9 258 323 
3 258 33 160 
3 323 160 66 
3 33 257 158 
3 257 15 344 
3 158 344 77 
3 66 159 324 
3 159 77 345 
3 324 345 0 
3 4 346 337 
3 346 78 163 
3 337 163 73 
3 78 347 161 
3 347 16 261 
3 161 261 37 
3 73 162 334 
3 162 37 265 
3 334 265 13 
3 16 348 260 
3 348 79 166 
3 260 166 35 
3 79 349 164 
3 349 2 350 
3 164 350 80 
3 35 165 262 
3 165 80 351 
3 262 351 17 
3 13 264 329 
3 264 36 169 
3 329 169 69 
3 36 263 167 
3 263 17 352 
3 167 352 81 
3 69 168 327 
3 168 81 353 
3 327 353 5 
3 0 354 325 
3 354 82 172 
3 325 172 67 
3 82 355 170 
3 355 18 267 
3 170 267 40 
3 67 171 322 
3 171 40 271 
3 322 271 10 
3 18 356 266 
3 356 83 175 
3 266 175 38 
3 83 357 173 
3 357 6 358 
3 173 358 84 
3 38 174 268 
3 174 84 359 
3 268 359 19 
3 10 270 317 
3 270 39 178 
3 317 178 63 
3 39 269 176 
3 269 19 360 
3 176 360 85 
3 63 177 315 
3 177 85 361 
3 315 361 1 
3 1 362 363 
3 362 86 181 
3 363 181 87 
3 86 364 179 
3 364 20 273 
3 179 273 43 
3 87 180 365 
3 180 43 277 
3 365 277 21 
3 20 366 272 
3 366 88 184 
3 272 184 41 
3 88 367 182 
3 367 5 353 
3 182 353 81 
3 41 183 274 
3 183 81 352 
3 274 352 17 
3 21 276 368 
3 276 42 187 
3 368 187 89 
3 42 275 185 
3 275 17 351 
3 185 351 80 
3 89 186 369 
3 186 80 350 
3 369 350 2 
3 1 363 314 
3 363 87 190 
3 314 190 62 
3 87 365 188 
3 365 21 279 
3 188 279 46 
3 62 189 316 
3 189 46 283 
3 316 283 8 
3 21 368 278 
3 368 89 193 
3 278 193 44 
3 89 369 191 
3 369 2 370 
3 191 370 90 
3 44 192 280 
3 192 90 371 
3 280 371 22 
3 8 282 318 
3 282 45 196 
3 318 196 64 
3 45 281 194 
3 281 22 372 
3 194 372 91 
3 64 195 319 
3 195 91 373 
3 319 373 3 
3 5 374 326 
3 374 92 199 
3 326 199 68 
3 92 375 197 
3 375 23 285 
3 197 285 49 
3 68 198 328 
3 198 49 289 
3 328 289 11 
3 23 376 284 
3 376 93 202 
3 284 202 47 
3 93 377 200 
3 377 6 378 
3 200 378 94 
3 47 201 286 
3 201 94 379 
3 286 379 24 
3 11 288 330 
3 288 48 205 
3 330 205 70 
3 48 287 203 
3 287 24 380 
3 203 380 95 
3 70 204 331 
3 204 95 381 
3 331 381 7 
3 3 382 338 
3 382 96 208 
3 338 208 74 
3 96 383 206 
3 383 25 291 
3 206 291 52 
3 74 207 339 
3 207 52 295 
3 339 295 14 
3 25 384 290 
3 384 97 211 
3 290 211 50 
3 97 385 209 
3 385 4 336 
3 209 336 72 
3 50 210 292 
3 210 72 335 
3 292 335 12 
3 14 294 340 
3 294 51 214 
3 340 214 75 
3 51 293 212 
3 293 12 333 
3 212 333 71 
3 75 213 341 
3 213 71 332 
3 341 332 7 
3 4 385 346 
3 385 97 217 
3 346 217 78 
3 97 384 215 
3 384 25 297 
3 215 297 55 
3 78 216 347 
3 216 55 301 
3 347 301 16 
3 25 383 296 
3 383 96 220 
3 296 220 53 
3 96 382 218 
3 382 3 373 
3 218 373 91 
3 53 219 298 
3 219 91 372 
3 298 372 22 
3 16 300 348 
3 300 54 223 
3 348 223 79 
3 54 299 221 
3 299 22 371 
3 221 371 90 
3 79 222 349 
3 222 90 370 
3 349 370 2 
3 0 345 354 
3 345 77 226 
3 354 226 82 
3 77 344 224 
3 344 15 303 
3 224 303 58 
3 82 225 355 
3 225 58 307 
3 355 307 18 
3 15 343 302 
3 343 76 229 
3 302 229 56 
3 76 342 227 
3 342 7 381 
3 227 381 95 
3 56 228 304 
3 228 95 380 
3 304 380 24 
3 18 306 356 
3 306 57 232 
3 356 232 83 
3 57 305 230 
3 305 24 379 
3 230 379 94 
3 83 231 357 
3 231 94 378 
3 357 378 6 
3 1 361 362 
3 361 85 235 
3 362 235 86 
3 85 360 233 
3 360 19 309 
3 233 309 61 
3 86 234 364 
3 234 61 313 
3 364 313 20 
3 19 359 308 
3 359 84 238 
3 308 238 59 
3 84 358 236 
3 358 6 377 
3 236 377 93 
3 59 237 310 
3 237 93 376 
3 310 376 23 
3 20 312 366 
3 312 60 241 
3 366 241 88 
3 60 311 239 
3 311 23 375 
3 239 375 92 
3 88 240 367 
3 240 92 374 
3 367 374 5 
